<svg xmlns="http://www.w3.org/2000/svg" width="150" height="150" viewBox="0 0 150 150">
  <path fill="#FFF" fill-rule="evenodd" d="M9.9137829,52.9890749 C3.8666974,47.2495955 0.8432,39.990951 0.8432,31.2129237 C0.8432,22.4348963 3.88123344,15.1903189 9.95739147,9.47897424 C16.0335495,3.76762952 23.4614686,0.912 32.2413716,0.912 C39.0443428,0.912 45.0913376,2.65632542 50.3825374,6.1450286 C55.6737372,9.63373177 59.3658927,14.4728281 61.4591146,20.6624628 L46.6591097,20.6624628 C43.849351,16.4992425 37.6197877,14.2857879 32.503023,14.2857879 C27.3862584,14.2857879 23.5793223,16.0653483 20.6429971,19.1601657 C17.7066719,22.254983 15.4472629,26.0361383 15.4472629,31.2129237 C15.4472629,36.389709 17.7066719,40.1863274 20.6429971,43.2811447 C23.5793223,46.3759621 27.3862584,48.2624684 32.503023,48.2624684 C37.6197877,48.2624684 43.8076022,45.9797444 46.6591097,41.7633845 L61.4591146,41.7633845 C59.3658927,47.9530192 55.6737372,52.7921155 50.3825374,56.2808187 C45.0913376,59.7695219 39.0443428,61.5138473 32.2413716,61.5138473 C23.4614686,61.5138473 16.0190135,58.6722849 9.9137829,52.9890749 Z" transform="translate(44 44)"/>
</svg>
